<svg width="460" height="300" xmlns="http://www.w3.org/2000/svg"><g transform="translate(230,150)"><path fill="#1f77b4" d="M6.123031769111886e-15,-100A100,100 0 0,1 90.12430862004372,43.33138580473872L45.06215431002186,21.66569290236936A50,50 0 0,0 3.061515884555943e-15,-50Z"/><path fill="#aec7e8" d="M90.12430862004372,43.33138580473872A100,100 0 0,1 4.27399232527422,99.90862319941907L2.13699616263711,49.954311599709534A50,50 0 0,0 45.06215431002186,21.66569290236936Z"/><path fill="#ff7f0e" d="M4.27399232527422,99.90862319941907A100,100 0 0,1 -64.73671010012329,76.21783495621347L-32.368355050061645,38.10891747810673A50,50 0 0,0 2.13699616263711,49.954311599709534Z"/><path fill="#ffbb78" d="M-64.73671010012329,76.21783495621347A100,100 0 0,1 -99.89978970073908,-4.4757142165364L-49.94989485036954,-2.2378571082682A50,50 0 0,0 -32.368355050061645,38.10891747810673Z"/><path fill="#2ca02c" d="M-99.89978970073908,-4.4757142165364A100,100 0 0,1 -1.836909530733566e-14,-100L-9.18454765366783e-15,-50A50,50 0 0,0 -49.94989485036954,-2.2378571082682Z"/></g></svg>